<svg width="40" height="40" viewBox="0 0 40 40" fill="none" xmlns="http://www.w3.org/2000/svg">
<path d="M17.75 38H6.49998C4.0147 38 1.99998 35.9853 2 33.5L2.00017 6.49999C2.00019 4.01471 4.0149 2 6.50017 2H26.7507C29.236 2 31.2507 4.01472 31.2507 6.50001V15.5M30.125 30.0294V29.911M9.8757 11H23.3757M9.8757 17.75H23.3757M9.8757 24.5001H16.6257M38 30.1251C38 30.1251 36.1322 35.637 30.125 35.5407C24.1178 35.4444 22.25 30.1251 22.25 30.1251C22.25 30.1251 24.0421 24.5169 30.125 24.5169C36.2079 24.5169 38 30.1251 38 30.1251Z" stroke="#DB6600" stroke-width="4" stroke-linecap="round" stroke-linejoin="round"/>
</svg>
