<svg width="38" height="40" viewBox="0 0 38 40" fill="none" xmlns="http://www.w3.org/2000/svg">
<path d="M2.2227 29.1249L0.998923 28.2575H0.998922L2.2227 29.1249ZM4.67587 21.67L3.17597 21.6529L3.17587 21.6615V21.67H4.67587ZM4.72736 17.1628L6.22726 17.1799L6.22736 17.1714V17.1628H4.72736ZM35.5407 29.1611L36.7812 28.3179L36.7812 28.3178L35.5407 29.1611ZM33.1798 21.67L31.6799 21.652L31.6798 21.661V21.67H33.1798ZM33.2313 17.3861L34.7312 17.4042L34.7313 17.3952V17.3861H33.2313ZM13.2501 36.5C12.4217 36.5 11.7501 37.1716 11.7501 38C11.7501 38.8284 12.4217 39.5 13.2501 39.5V36.5ZM24.5002 39.5C25.3286 39.5 26.0002 38.8284 26.0002 38C26.0002 37.1716 25.3286 36.5 24.5002 36.5V39.5ZM3.44647 29.9923C4.8213 28.0526 6.17587 25.1722 6.17587 21.67H3.17587C3.17587 24.3891 2.12071 26.6748 0.998923 28.2575L3.44647 29.9923ZM6.17577 21.6872L6.22726 17.1799L3.22746 17.1457L3.17597 21.6529L6.17577 21.6872ZM36.7812 28.3178C35.7058 26.7356 34.6798 24.4274 34.6798 21.67H31.6798C31.6798 25.1766 32.9804 28.0627 34.3001 30.0043L36.7812 28.3178ZM34.6797 21.6881L34.7312 17.4042L31.7314 17.3681L31.6799 21.652L34.6797 21.6881ZM34.7313 17.3861C34.7313 8.15978 27.7284 0.5 18.8751 0.5V3.5C25.8792 3.5 31.7313 9.61746 31.7313 17.3861H34.7313ZM34.6815 32.7499C35.9651 32.7499 36.7307 31.7942 37.0285 31.0445C37.3322 30.2798 37.3872 29.2094 36.7812 28.3179L34.3001 30.0043C34.2759 29.9686 34.2631 29.9377 34.2567 29.9174C34.2536 29.9073 34.252 29.8998 34.2512 29.8951C34.2507 29.8927 34.2505 29.8909 34.2504 29.8898C34.2503 29.8892 34.2503 29.8888 34.2503 29.8885C34.2502 29.8883 34.2502 29.8881 34.2502 29.8881C34.2502 29.8881 34.2502 29.8882 34.2502 29.8885C34.2502 29.8887 34.2503 29.8891 34.2503 29.8896C34.2502 29.8905 34.2502 29.8919 34.2501 29.8937C34.2499 29.8972 34.2494 29.9018 34.2485 29.9072C34.2466 29.9186 34.2435 29.9292 34.2403 29.9371C34.2309 29.9608 34.235 29.9318 34.2934 29.8827C34.3629 29.8242 34.5003 29.7499 34.6815 29.7499V32.7499ZM6.22736 17.1628C6.22736 9.51746 11.9862 3.5 18.8751 3.5V0.5C10.1369 0.5 3.22736 8.05978 3.22736 17.1628H6.22736ZM3.0708 29.7499C3.25647 29.7499 3.39551 29.8274 3.46371 29.8858C3.52044 29.9345 3.52209 29.961 3.51125 29.9328C3.50156 29.9077 3.49952 29.8823 3.50007 29.8739C3.50052 29.8668 3.49905 29.9181 3.44647 29.9923L0.998922 28.2575C0.36534 29.1514 0.414623 30.2398 0.711765 31.0112C1.00233 31.7655 1.76659 32.7499 3.0708 32.7499V29.7499ZM34.6815 29.7499H3.0708V32.7499H34.6815V29.7499ZM13.2501 39.5H24.5002V36.5H13.2501V39.5Z" fill="#9643FF"/>
</svg>
