<svg width="40" height="40" viewBox="0 0 40 40" fill="none" xmlns="http://www.w3.org/2000/svg">
<path d="M18.8 38H6.79998C4.14901 38 1.99998 35.9853 2 33.5L2.00019 6.49999C2.0002 4.01471 4.14923 2 6.80019 2H28.4007C31.0517 2 33.2007 4.01472 33.2007 6.50001V15.5M35.6 34.6251L38 36.8751M10.4007 11H24.8008M10.4007 17.75H24.8008M10.4007 24.5001H17.6008M36.8 30.1251C36.8 33.2317 34.1137 35.7501 30.8 35.7501C27.4863 35.7501 24.8 33.2317 24.8 30.1251C24.8 27.0185 27.4863 24.5001 30.8 24.5001C34.1137 24.5001 36.8 27.0185 36.8 30.1251Z" stroke="#394867" stroke-width="3" stroke-linecap="round" stroke-linejoin="round"/>
</svg>
