<svg width="40" height="39" viewBox="0 0 40 39" fill="none" xmlns="http://www.w3.org/2000/svg">
<path d="M16.8489 25.9691C16.2332 26.2087 15.5398 25.9038 15.3003 25.2881L13.6647 21.0852L12.847 18.9837L12.0292 16.8822C11.9026 16.5568 11.9244 16.1922 12.0891 15.8843L13.9466 12.4108C14.2248 11.8905 14.8409 11.6508 15.3976 11.8462L19.1143 13.1505C19.4438 13.2662 19.7064 13.52 19.833 13.8455L23.1041 22.2513C23.3437 22.8671 23.0388 23.5604 22.4231 23.8L16.8489 25.9691Z" stroke="#394867" stroke-linecap="round" stroke-linejoin="round"/>
<path d="M18.2733 16.6116L18.2743 16.6158M14.619 15.2639L15.2204 19.1567C15.2737 19.5018 15.4751 19.8064 15.7719 19.9905L23.4361 24.7463C23.9975 25.0946 24.735 24.9219 25.0834 24.3606L28.237 19.2782C28.5854 18.7168 28.4127 17.9793 27.8513 17.631L20.187 12.8752C19.8903 12.6911 19.5279 12.6458 19.195 12.7513L15.44 13.9409C14.8775 14.1191 14.529 14.6808 14.619 15.2639Z" stroke="#394867" stroke-linecap="round" stroke-linejoin="round"/>
<circle cx="19" cy="19" r="16.5" stroke="#394867" stroke-width="3"/>
<path d="M38 2L2 37" stroke="#394867" stroke-width="3" stroke-linecap="round"/>
</svg>
