<svg width="26" height="26" viewBox="0 0 26 26" fill="none" xmlns="http://www.w3.org/2000/svg">
<rect width="26" height="26" rx="2" fill="#354376"/>
<path d="M13.5 3L10.1667 6.33333L13.5 9.66667V7.16667C16.7158 7.16667 19.3333 9.78333 19.3333 13C19.3333 13.7333 19.191 14.4334 18.9427 15.0801L20.2057 16.3415C20.7099 15.334 21 14.2017 21 13C21 8.865 17.6358 5.5 13.5 5.5V3ZM6.79427 9.65853C6.2901 10.666 6 11.7983 6 13C6 17.135 9.36417 20.5 13.5 20.5V23L16.8333 19.6667L13.5 16.3333V18.8333C10.2842 18.8333 7.66667 16.2167 7.66667 13C7.66667 12.2667 7.80896 11.5666 8.05729 10.9199L6.79427 9.65853Z" fill="white"/>
</svg>
