<svg width="25" height="24" viewBox="0 0 25 24" fill="none" xmlns="http://www.w3.org/2000/svg">
<g clip-path="url(#clip0_110_135)">
<path d="M18.5 2.40002H6.5L5.3 9.60002H19.7L18.5 2.40002ZM0.5 12C0.5 12 2.9 13.2 12.5 13.2C22.1 13.2 24.5 12 24.5 12L19.7 9.60002H5.3L0.5 12ZM10.1 16.8H14.9V18H10.1V16.8Z" fill="white"/>
<path d="M7.7 21.6C9.68822 21.6 11.3 19.9882 11.3 18C11.3 16.0118 9.68822 14.4 7.7 14.4C5.71177 14.4 4.1 16.0118 4.1 18C4.1 19.9882 5.71177 21.6 7.7 21.6Z" fill="white"/>
<path d="M17.3 21.6C19.2882 21.6 20.9 19.9882 20.9 18C20.9 16.0118 19.2882 14.4 17.3 14.4C15.3118 14.4 13.7 16.0118 13.7 18C13.7 19.9882 15.3118 21.6 17.3 21.6Z" fill="white"/>
</g>
<defs>
<clipPath id="clip0_110_135">
<rect width="24" height="24" fill="white" transform="translate(0.5)"/>
</clipPath>
</defs>
</svg>
