<svg width="37" height="24" viewBox="0 0 37 24" fill="none" xmlns="http://www.w3.org/2000/svg">
<path d="M4 24H5.5V20.25C5.50119 19.2558 5.89666 18.3027 6.59966 17.5997C7.30267 16.8967 8.2558 16.5012 9.25 16.5H13.75C14.7442 16.5012 15.6973 16.8967 16.4003 17.5997C17.1033 18.3027 17.4988 19.2558 17.5 20.25V24H19V20.25C18.9984 18.8581 18.4448 17.5237 17.4606 16.5394C16.4763 15.5552 15.1419 15.0016 13.75 15H9.25C7.8581 15.0016 6.52367 15.5552 5.53944 16.5394C4.55522 17.5237 4.00159 18.8581 4 20.25V24ZM11.5 4.5C12.2417 4.5 12.9667 4.71993 13.5834 5.13199C14.2001 5.54404 14.6807 6.12971 14.9645 6.81494C15.2484 7.50016 15.3226 8.25416 15.1779 8.98159C15.0333 9.70902 14.6761 10.3772 14.1517 10.9017C13.6272 11.4261 12.959 11.7832 12.2316 11.9279C11.5042 12.0726 10.7502 11.9984 10.0649 11.7145C9.37971 11.4307 8.79404 10.9501 8.38199 10.3334C7.96993 9.7167 7.75 8.99168 7.75 8.25C7.75 7.25544 8.14509 6.30161 8.84835 5.59835C9.55161 4.89509 10.5054 4.5 11.5 4.5ZM11.5 3C10.4616 3 9.44661 3.30791 8.58326 3.88478C7.7199 4.46166 7.04699 5.2816 6.64963 6.24091C6.25227 7.20022 6.1483 8.25582 6.35088 9.27422C6.55345 10.2926 7.05346 11.2281 7.78769 11.9623C8.52191 12.6965 9.45738 13.1965 10.4758 13.3991C11.4942 13.6017 12.5498 13.4977 13.5091 13.1004C14.4684 12.703 15.2883 12.0301 15.8652 11.1667C16.4421 10.3034 16.75 9.28835 16.75 8.25C16.75 6.85761 16.1969 5.52226 15.2123 4.53769C14.2277 3.55312 12.8924 3 11.5 3Z" fill="white"/>
<path d="M32.9547 1C32.421 1.00006 31.8928 1.11104 31.4012 1.32638C30.9096 1.54173 30.4646 1.85707 30.0925 2.25378L29.503 2.88378L28.9075 2.25378C28.5354 1.85715 28.0903 1.54189 27.5987 1.32662C27.1072 1.11135 26.5789 1.00044 26.0453 1.00044C25.5117 1.00044 24.9834 1.11135 24.4918 1.32662C24.0002 1.54189 23.5552 1.85715 23.1831 2.25378C22.4243 3.06624 22 4.15294 22 5.284C22 6.41506 22.4243 7.50176 23.1831 8.31422L29.503 15L35.8169 8.31422C36.5757 7.50176 37 6.41506 37 5.284C37 4.15294 36.5757 3.06624 35.8169 2.25378C35.4448 1.85707 34.9998 1.54173 34.5082 1.32638C34.0166 1.11104 33.4884 1.00006 32.9547 1Z" fill="white"/>
</svg>
