<svg width="24" height="24" viewBox="0 0 24 24" fill="none" xmlns="http://www.w3.org/2000/svg">
<g clip-path="url(#clip0_604_4347)">
<path d="M12 21.4615C11.8584 21.2911 11.7001 21.0982 11.5284 20.8853C10.7912 19.9713 9.80991 18.6927 8.83057 17.2322C7.84935 15.7687 6.88229 14.1406 6.16355 12.5263C5.43903 10.8989 5 9.35829 5 8.05C5 4.1459 8.13529 1 12 1C15.8647 1 19 4.1459 19 8.05C19 9.35829 18.561 10.8989 17.8365 12.5263C17.1177 14.1406 16.1507 15.7687 15.1694 17.2322C14.1901 18.6927 13.2088 19.9713 12.4716 20.8853C12.2999 21.0982 12.1416 21.2911 12 21.4615ZM8.14286 8.05C8.14286 10.1834 9.86471 11.925 12 11.925C14.1353 11.925 15.8571 10.1834 15.8571 8.05C15.8571 5.9166 14.1353 4.175 12 4.175C9.86471 4.175 8.14286 5.9166 8.14286 8.05Z" stroke="#37343A" stroke-width="2"/>
</g>
<defs>
<clipPath id="clip0_604_4347">
<rect width="24" height="24" fill="white"/>
</clipPath>
</defs>
</svg>
