<svg width="40" height="39" viewBox="0 0 40 39" fill="none" xmlns="http://www.w3.org/2000/svg">
<path d="M16.8489 25.9691C16.2332 26.2087 15.5398 25.9038 15.3003 25.2881L13.6647 21.0852L12.847 18.9837L12.0292 16.8822C11.9026 16.5568 11.9244 16.1922 12.0891 15.8843L13.9466 12.4108C14.2248 11.8905 14.8409 11.6508 15.3976 11.8462L19.1143 13.1505C19.4438 13.2662 19.7064 13.52 19.833 13.8455L23.1041 22.2513C23.3437 22.8671 23.0388 23.5604 22.4231 23.8L16.8489 25.9691Z" stroke="#CB0000" stroke-linecap="round" stroke-linejoin="round"/>
<path d="M18.2723 16.6116L18.2733 16.6158M14.6181 15.2639L15.2194 19.1567C15.2727 19.5018 15.4741 19.8064 15.7709 19.9905L23.4352 24.7463C23.9965 25.0946 24.734 24.9219 25.0824 24.3606L28.2361 19.2782C28.5844 18.7168 28.4117 17.9793 27.8503 17.631L20.186 12.8752C19.8893 12.6911 19.5269 12.6458 19.194 12.7513L15.439 13.9409C14.8765 14.1191 14.528 14.6808 14.6181 15.2639Z" stroke="#CB0000" stroke-linecap="round" stroke-linejoin="round"/>
<circle cx="19" cy="19" r="16.5" stroke="#C00000" stroke-width="3"/>
<path d="M38 2L2 37" stroke="#C00000" stroke-width="3" stroke-linecap="round"/>
</svg>
