<svg width="37" height="24" viewBox="0 0 37 24" fill="none" xmlns="http://www.w3.org/2000/svg">
<path d="M1 24H2.5V20.25C2.50119 19.2558 2.89666 18.3027 3.59966 17.5997C4.30267 16.8967 5.2558 16.5012 6.25 16.5H10.75C11.7442 16.5012 12.6973 16.8967 13.4003 17.5997C14.1033 18.3027 14.4988 19.2558 14.5 20.25V24H16V20.25C15.9984 18.8581 15.4448 17.5237 14.4606 16.5394C13.4763 15.5552 12.1419 15.0016 10.75 15H6.25C4.8581 15.0016 3.52367 15.5552 2.53944 16.5394C1.55522 17.5237 1.00159 18.8581 1 20.25V24ZM8.5 4.5C9.24168 4.5 9.9667 4.71993 10.5834 5.13199C11.2001 5.54404 11.6807 6.12971 11.9645 6.81494C12.2484 7.50016 12.3226 8.25416 12.1779 8.98159C12.0333 9.70902 11.6761 10.3772 11.1517 10.9017C10.6272 11.4261 9.95902 11.7832 9.23159 11.9279C8.50416 12.0726 7.75016 11.9984 7.06494 11.7145C6.37971 11.4307 5.79404 10.9501 5.38199 10.3334C4.96993 9.7167 4.75 8.99168 4.75 8.25C4.75 7.25544 5.14509 6.30161 5.84835 5.59835C6.55161 4.89509 7.50544 4.5 8.5 4.5ZM8.5 3C7.46165 3 6.44661 3.30791 5.58326 3.88478C4.7199 4.46166 4.04699 5.2816 3.64963 6.24091C3.25227 7.20022 3.1483 8.25582 3.35088 9.27422C3.55345 10.2926 4.05346 11.2281 4.78769 11.9623C5.52191 12.6965 6.45738 13.1965 7.47578 13.3991C8.49418 13.6017 9.54978 13.4977 10.5091 13.1004C11.4684 12.703 12.2883 12.0301 12.8652 11.1667C13.4421 10.3034 13.75 9.28835 13.75 8.25C13.75 6.85761 13.1969 5.52226 12.2123 4.53769C11.2277 3.55312 9.89239 3 8.5 3Z" fill="white"/>
<path d="M28.8333 16H28.8088C28.5596 15.995 28.3188 15.9219 28.1215 15.7913C27.9242 15.6607 27.7808 15.4794 27.7122 15.274L24.015 4.1902L21.7575 9.35011C21.6744 9.54071 21.5255 9.70505 21.3306 9.82119C21.1357 9.93733 20.904 9.99975 20.6667 10.0001H16V8.00014H19.8582L23.0747 0.649262C23.1608 0.452168 23.3173 0.283387 23.5218 0.166956C23.7264 0.0505255 23.9686 -0.00761964 24.2139 0.000801028C24.4592 0.0092217 24.6952 0.083779 24.8883 0.213855C25.0813 0.343932 25.2215 0.522895 25.289 0.725261L28.9185 11.6171L31.2273 5.68418C31.3045 5.48505 31.4529 5.31182 31.6514 5.18904C31.8499 5.06627 32.0885 5.0002 32.3333 5.00019H37V7.00015H33.1733L29.9393 15.316C29.8623 15.5152 29.714 15.6885 29.5154 15.8113C29.3168 15.9341 29.0782 16.0001 28.8333 16Z" fill="white"/>
</svg>
