<svg width="128" height="128" viewBox="0 0 128 128" fill="none" xmlns="http://www.w3.org/2000/svg">
<path d="M128 64C128 99.3462 99.3462 128 64 128C28.6538 128 0 99.3462 0 64C0 28.6538 28.6538 0 64 0C99.3462 0 128 28.6538 128 64ZM12.8 64C12.8 92.277 35.723 115.2 64 115.2C92.277 115.2 115.2 92.277 115.2 64C115.2 35.723 92.277 12.8 64 12.8C35.723 12.8 12.8 35.723 12.8 64Z" fill="url(#paint0_linear_2_291)"/>
<mask id="path-2-inside-1_2_291" fill="white">
<path d="M64 6.4C64 2.86538 66.8725 -0.0331501 70.3895 0.319729C78.872 1.17083 87.1215 3.71062 94.6435 7.81305C104.044 12.9397 112.007 20.3429 117.805 29.3446C123.603 38.3462 127.05 48.6587 127.83 59.3375C128.61 70.0163 126.698 80.7202 122.27 90.4688C117.842 100.217 111.038 108.699 102.483 115.138C93.9278 121.576 83.8938 125.765 73.3002 127.321C62.7066 128.877 51.892 127.75 41.8466 124.044C33.8083 121.078 26.4681 116.536 20.2464 110.708C17.6668 108.291 17.9598 104.221 20.6217 101.896C23.2836 99.5702 27.3029 99.8784 29.9421 102.23C34.7117 106.479 40.2491 109.811 46.2773 112.035C54.3136 115 62.9653 115.901 71.4402 114.657C79.9151 113.412 87.9422 110.061 94.7865 104.91C101.631 99.7594 107.073 92.9739 110.616 85.175C114.159 77.3761 115.688 68.813 115.064 60.27C114.44 51.7269 111.682 43.477 107.044 36.2757C102.406 29.0743 96.0349 23.1518 88.5148 19.0504C82.8738 15.9739 76.7214 13.9959 70.3834 13.1995C66.8764 12.7588 64 9.93462 64 6.4Z"/>
</mask>
<path d="M64 6.4C64 2.86538 66.8725 -0.0331501 70.3895 0.319729C78.872 1.17083 87.1215 3.71062 94.6435 7.81305C104.044 12.9397 112.007 20.3429 117.805 29.3446C123.603 38.3462 127.05 48.6587 127.83 59.3375C128.61 70.0163 126.698 80.7202 122.27 90.4688C117.842 100.217 111.038 108.699 102.483 115.138C93.9278 121.576 83.8938 125.765 73.3002 127.321C62.7066 128.877 51.892 127.75 41.8466 124.044C33.8083 121.078 26.4681 116.536 20.2464 110.708C17.6668 108.291 17.9598 104.221 20.6217 101.896C23.2836 99.5702 27.3029 99.8784 29.9421 102.23C34.7117 106.479 40.2491 109.811 46.2773 112.035C54.3136 115 62.9653 115.901 71.4402 114.657C79.9151 113.412 87.9422 110.061 94.7865 104.91C101.631 99.7594 107.073 92.9739 110.616 85.175C114.159 77.3761 115.688 68.813 115.064 60.27C114.44 51.7269 111.682 43.477 107.044 36.2757C102.406 29.0743 96.0349 23.1518 88.5148 19.0504C82.8738 15.9739 76.7214 13.9959 70.3834 13.1995C66.8764 12.7588 64 9.93462 64 6.4Z" stroke="url(#paint1_linear_2_291)" stroke-width="34" mask="url(#path-2-inside-1_2_291)"/>
<defs>
<linearGradient id="paint0_linear_2_291" x1="1.26384e-06" y1="81.2973" x2="130.58" y2="75.6944" gradientUnits="userSpaceOnUse">
<stop stop-color="#1963FF"/>
<stop offset="1" stop-color="#5B85FD"/>
</linearGradient>
<linearGradient id="paint1_linear_2_291" x1="64" y1="0" x2="64" y2="128" gradientUnits="userSpaceOnUse">
<stop stop-color="#3488FE"/>
<stop offset="0.776042" stop-color="#06E9C5"/>
</linearGradient>
</defs>
</svg>
