<svg width="25" height="24" viewBox="0 0 25 24" fill="none" xmlns="http://www.w3.org/2000/svg">
<path d="M1.1545 19.2769H8.35403V20.7529C8.35403 21.6141 7.97477 22.44 7.29969 23.0489C6.6246 23.6579 5.70899 24 4.75427 24C3.79955 24 2.88394 23.6579 2.20885 23.0489C1.53376 22.44 1.1545 21.6141 1.1545 20.7529V19.2769ZM6.39053 5.24941C9.00854 5.24941 10.3175 8.65002 10.3175 11.0116C10.3175 12.1923 9.66304 13.3731 9.00854 15.1442L8.35403 16.9154H1.1545C1.1545 15.7346 0.5 13.9635 0.5 11.0116C0.5 8.05964 3.11539 5.24941 6.39053 5.24941ZM22.1693 14.6696L21.8852 16.1231C21.7195 16.9713 21.1869 17.7253 20.4048 18.2194C19.6227 18.7134 18.655 18.9069 17.7147 18.7574C16.7744 18.6079 15.9385 18.1275 15.3908 17.422C14.8431 16.7165 14.6286 15.8437 14.7943 14.9955L15.0797 13.5431L22.1693 14.6696ZM19.7136 0.0363232C22.939 0.548776 24.9732 3.72504 24.4051 6.63209C23.837 9.54032 22.8513 11.1816 22.6248 12.3446L15.5339 11.217L15.2302 9.37029C14.9266 7.52357 14.5103 6.25779 14.7367 5.09591C15.191 2.7698 17.1348 -0.373403 19.7136 0.0363232V0.0363232Z" fill="white"/>
</svg>
