<svg width="22" height="21" viewBox="0 0 22 21" fill="none" xmlns="http://www.w3.org/2000/svg">
<path d="M20.0392 10.0008L19.0605 9.96239L19.0018 10.9401L18.4582 20H14.4V17.5882C14.4 16.4834 13.5042 15.5882 12.3998 15.5882H12.394H12.3881H12.3823H12.3765H12.3707H12.3648H12.359H12.3532H12.3474H12.3416H12.3358H12.33H12.3242H12.3184H12.3126H12.3069H12.3011H12.2953H12.2896H12.2838H12.278H12.2723H12.2665H12.2608H12.2551H12.2493H12.2436H12.2379H12.2321H12.2264H12.2207H12.215H12.2093H12.2036H12.1979H12.1922H12.1865H12.1808H12.1751H12.1694H12.1637H12.158H12.1524H12.1467H12.141H12.1354H12.1297H12.1241H12.1184H12.1128H12.1071H12.1015H12.0958H12.0902H12.0846H12.079H12.0733H12.0677H12.0621H12.0565H12.0509H12.0453H12.0397H12.0341H12.0285H12.0229H12.0173H12.0117H12.0061H12.0005H11.995H11.9894H11.9838H11.9783H11.9727H11.9671H11.9616H11.956H11.9505H11.9449H11.9394H11.9338H11.9283H11.9228H11.9172H11.9117H11.9062H11.9006H11.8951H11.8896H11.8841H11.8786H11.8731H11.8676H11.8621H11.8566H11.8511H11.8456H11.8401H11.8346H11.8291H11.8236H11.8181H11.8126H11.8072H11.8017H11.7962H11.7907H11.7853H11.7798H11.7744H11.7689H11.7634H11.758H11.7525H11.7471H11.7416H11.7362H11.7307H11.7253H11.7199H11.7144H11.709H11.7036H11.6981H11.6927H11.6873H11.6819H11.6764H11.671H11.6656H11.6602H11.6548H11.6494H11.644H11.6386H11.6332H11.6278H11.6224H11.617H11.6116H11.6062H11.6008H11.5954H11.59H11.5846H11.5792H11.5739H11.5685H11.5631H11.5577H11.5524H11.547H11.5416H11.5362H11.5309H11.5255H11.5201H11.5148H11.5094H11.5041H11.4987H11.4934H11.488H11.4826H11.4773H11.4719H11.4666H11.4613H11.4559H11.4506H11.4452H11.4399H11.4345H11.4292H11.4239H11.4185H11.4132H11.4079H11.4025H11.3972H11.3919H11.3866H11.3812H11.3759H11.3706H11.3653H11.3599H11.3546H11.3493H11.344H11.3387H11.3334H11.328H11.3227H11.3174H11.3121H11.3068H11.3015H11.2962H11.2909H11.2856H11.2803H11.275H11.2697H11.2644H11.2591H11.2538H11.2485H11.2432H11.2379H11.2326H11.2273H11.222H11.2167H11.2114H11.2061H11.2008H11.1955H11.1902H11.1849H11.1796H11.1743H11.1691H11.1638H11.1585H11.1532H11.1479H11.1426H11.1373H11.132H11.1268H11.1215H11.1162H11.1109H11.1056H11.1003H11.0951H11.0898H11.0845H11.0792H11.0739H11.0686H11.0634H11.0581H11.0528H11.0475H11.0422H11.037H11.0317H11.0264H11.0211H11.0158H11.0106H11.0053H11H10.9947H10.9894H10.9842H10.9789H10.9736H10.9683H10.963H10.9578H10.9525H10.9472H10.9419H10.9366H10.9314H10.9261H10.9208H10.9155H10.9102H10.9049H10.8997H10.8944H10.8891H10.8838H10.8785H10.8732H10.868H10.8627H10.8574H10.8521H10.8468H10.8415H10.8362H10.8309H10.8257H10.8204H10.8151H10.8098H10.8045H10.7992H10.7939H10.7886H10.7833H10.778H10.7727H10.7674H10.7621H10.7568H10.7515H10.7462H10.7409H10.7356H10.7303H10.725H10.7197H10.7144H10.7091H10.7038H10.6985H10.6932H10.6879H10.6826H10.6773H10.672H10.6666H10.6613H10.656H10.6507H10.6454H10.6401H10.6347H10.6294H10.6241H10.6188H10.6134H10.6081H10.6028H10.5975H10.5921H10.5868H10.5815H10.5761H10.5708H10.5655H10.5601H10.5548H10.5494H10.5441H10.5387H10.5334H10.5281H10.5227H10.5174H10.512H10.5067H10.5013H10.4959H10.4906H10.4852H10.4799H10.4745H10.4691H10.4638H10.4584H10.453H10.4477H10.4423H10.4369H10.4315H10.4261H10.4208H10.4154H10.41H10.4046H10.3992H10.3938H10.3884H10.383H10.3776H10.3722H10.3668H10.3614H10.356H10.3506H10.3452H10.3398H10.3344H10.329H10.3236H10.3181H10.3127H10.3073H10.3019H10.2964H10.291H10.2856H10.2801H10.2747H10.2693H10.2638H10.2584H10.2529H10.2475H10.242H10.2366H10.2311H10.2257H10.2202H10.2147H10.2093H10.2038H10.1983H10.1928H10.1874H10.1819H10.1764H10.1709H10.1654H10.1599H10.1544H10.1489H10.1434H10.1379H10.1324H10.1269H10.1214H10.1159H10.1104H10.1049H10.0994H10.0938H10.0883H10.0828H10.0772H10.0717H10.0662H10.0606H10.0551H10.0495H10.044H10.0384H10.0329H10.0273H10.0217H10.0162H10.0106H10.005H9.99945H9.99387H9.98829H9.98271H9.97712H9.97153H9.96593H9.96033H9.95473H9.94912H9.94351H9.9379H9.93229H9.92667H9.92104H9.91542H9.90979H9.90415H9.89852H9.89288H9.88723H9.88159H9.87594H9.87028H9.86462H9.85896H9.8533H9.84763H9.84196H9.83628H9.8306H9.82492H9.81923H9.81354H9.80785H9.80215H9.79644H9.79074H9.78503H9.77931H9.7736H9.76787H9.76215H9.75642H9.75069H9.74495H9.73921H9.73346H9.72771H9.72196H9.7162H9.71044H9.70468H9.69891H9.69313H9.68735H9.68157H9.67579H9.67H9.6642H9.6584H9.6526H9.64679H9.64098H9.63517H9.62934H9.62352H9.61769H9.61186H9.60602H9.60018C8.49584 15.5882 7.6 16.4834 7.6 17.5882V20L3.5418 20L2.9982 10.9401L2.93954 9.96239L1.96081 10.0008L1.66438 10.0124L11 1.36321L20.3356 10.0124L20.0392 10.0008Z" stroke="#828296" stroke-width="2"/>
</svg>
