<svg width="25" height="24" viewBox="0 0 25 24" fill="none" xmlns="http://www.w3.org/2000/svg">
<path d="M10.5 12C12.71 12 14.5 10.21 14.5 8C14.5 5.79 12.71 4 10.5 4C8.29 4 6.5 5.79 6.5 8C6.5 10.21 8.29 12 10.5 12ZM10.5 6C11.0304 6 11.5391 6.21071 11.9142 6.58579C12.2893 6.96086 12.5 7.46957 12.5 8C12.5 8.53043 12.2893 9.03914 11.9142 9.41421C11.5391 9.78929 11.0304 10 10.5 10C9.39 10 8.5 9.11 8.5 8C8.5 6.89 9.4 6 10.5 6ZM9.77 20H2.5V17C2.5 14.33 7.83 13 10.5 13C11.54 13 13 13.21 14.36 13.61C13.5 13.95 12.7 14.42 12 15C11.5 14.94 11 14.9 10.5 14.9C7.53 14.9 4.4 16.36 4.4 17V18.1H9.72C9.7 18.15 9.67 18.2 9.64 18.25L9.35 19L9.64 19.75C9.68 19.83 9.73 19.91 9.77 20ZM17.5 18C18.06 18 18.5 18.44 18.5 19C18.5 19.56 18.06 20 17.5 20C16.94 20 16.5 19.56 16.5 19C16.5 18.44 16.94 18 17.5 18ZM17.5 15C14.77 15 12.44 16.66 11.5 19C12.44 21.34 14.77 23 17.5 23C20.23 23 22.56 21.34 23.5 19C22.56 16.66 20.23 15 17.5 15ZM17.5 21.5C16.837 21.5 16.2011 21.2366 15.7322 20.7678C15.2634 20.2989 15 19.663 15 19C15 18.337 15.2634 17.7011 15.7322 17.2322C16.2011 16.7634 16.837 16.5 17.5 16.5C18.163 16.5 18.7989 16.7634 19.2678 17.2322C19.7366 17.7011 20 18.337 20 19C20 19.663 19.7366 20.2989 19.2678 20.7678C18.7989 21.2366 18.163 21.5 17.5 21.5Z" fill="#BDCBCA"/>
</svg>
