<svg width="16" height="23" viewBox="0 0 16 23" fill="none" xmlns="http://www.w3.org/2000/svg">
<path d="M8 21.4615C7.85838 21.2911 7.70012 21.0982 7.52837 20.8853C6.7912 19.9713 5.80991 18.6927 4.83057 17.2322C3.84935 15.7687 2.88229 14.1406 2.16355 12.5263C1.43903 10.8989 1 9.35829 1 8.05C1 4.1459 4.13529 1 8 1C11.8647 1 15 4.1459 15 8.05C15 9.35829 14.561 10.8989 13.8365 12.5263C13.1177 14.1406 12.1507 15.7687 11.1694 17.2322C10.1901 18.6927 9.2088 19.9713 8.47163 20.8853C8.29988 21.0982 8.14162 21.2911 8 21.4615ZM4.14286 8.05C4.14286 10.1834 5.86471 11.925 8 11.925C10.1353 11.925 11.8571 10.1834 11.8571 8.05C11.8571 5.9166 10.1353 4.175 8 4.175C5.86471 4.175 4.14286 5.9166 4.14286 8.05Z" stroke="#828296" stroke-width="2"/>
</svg>
