<svg width="25" height="24" viewBox="0 0 25 24" fill="none" xmlns="http://www.w3.org/2000/svg">
<path fill-rule="evenodd" clip-rule="evenodd" d="M14.25 2C14.8023 2 15.25 2.44772 15.25 3V7C15.25 7.55228 14.8023 8 14.25 8C13.6977 8 13.25 7.55228 13.25 7V6H3.25C2.69772 6 2.25 5.55228 2.25 5C2.25 4.44772 2.69772 4 3.25 4H13.25V3C13.25 2.44772 13.6977 2 14.25 2ZM17.25 5C17.25 4.44772 17.6977 4 18.25 4H21.25C21.8023 4 22.25 4.44772 22.25 5C22.25 5.55228 21.8023 6 21.25 6H18.25C17.6977 6 17.25 5.55228 17.25 5ZM11.25 9C11.8023 9 12.25 9.44772 12.25 10V11H22.25C22.8023 11 23.25 11.4477 23.25 12C23.25 12.5523 22.8023 13 22.25 13H12.25V14C12.25 14.5523 11.8023 15 11.25 15C10.6977 15 10.25 14.5523 10.25 14V10C10.25 9.44772 10.6977 9 11.25 9ZM2.25 12C2.25 11.4477 2.69772 11 3.25 11H7.25C7.80228 11 8.25 11.4477 8.25 12C8.25 12.5523 7.80228 13 7.25 13H3.25C2.69772 13 2.25 12.5523 2.25 12ZM14.25 16C14.8023 16 15.25 16.4477 15.25 17V21C15.25 21.5523 14.8023 22 14.25 22C13.6977 22 13.25 21.5523 13.25 21V20H3.25C2.69772 20 2.25 19.5523 2.25 19C2.25 18.4477 2.69772 18 3.25 18H13.25V17C13.25 16.4477 13.6977 16 14.25 16ZM17.25 19C17.25 18.4477 17.6977 18 18.25 18H21.25C21.8023 18 22.25 18.4477 22.25 19C22.25 19.5523 21.8023 20 21.25 20H18.25C17.6977 20 17.25 19.5523 17.25 19Z" fill="#BDCBCA"/>
</svg>
