<svg width="128" height="128" viewBox="0 0 128 128" fill="none" xmlns="http://www.w3.org/2000/svg">
<path d="M128 64C128 99.3462 99.3462 128 64 128C28.6538 128 0 99.3462 0 64C0 28.6538 28.6538 0 64 0C99.3462 0 128 28.6538 128 64ZM12.8 64C12.8 92.277 35.723 115.2 64 115.2C92.277 115.2 115.2 92.277 115.2 64C115.2 35.723 92.277 12.8 64 12.8C35.723 12.8 12.8 35.723 12.8 64Z" fill="url(#paint0_linear_2_290)"/>
<mask id="path-2-inside-1_2_290" fill="white">
<path d="M64 6.4C64 2.86538 66.8727 -0.0331769 70.3896 0.319671C82.5392 1.5386 94.1357 6.21493 103.772 13.8583C115.086 22.8325 123.032 35.3694 126.32 49.4314C129.607 63.4934 128.042 78.2539 121.879 91.3138C116.63 102.437 108.308 111.77 97.958 118.248C94.9619 120.124 91.102 118.799 89.535 115.631C87.9681 112.462 89.2944 108.656 92.2427 106.706C100.024 101.56 106.287 94.3606 110.303 85.851C115.234 75.4031 116.486 63.5947 113.856 52.3451C111.226 41.0955 104.869 31.066 95.8175 23.8866C88.4455 18.0392 79.6393 14.3624 70.3835 13.1994C66.8765 12.7587 64 9.93462 64 6.4Z"/>
</mask>
<path d="M64 6.4C64 2.86538 66.8727 -0.0331769 70.3896 0.319671C82.5392 1.5386 94.1357 6.21493 103.772 13.8583C115.086 22.8325 123.032 35.3694 126.32 49.4314C129.607 63.4934 128.042 78.2539 121.879 91.3138C116.63 102.437 108.308 111.77 97.958 118.248C94.9619 120.124 91.102 118.799 89.535 115.631C87.9681 112.462 89.2944 108.656 92.2427 106.706C100.024 101.56 106.287 94.3606 110.303 85.851C115.234 75.4031 116.486 63.5947 113.856 52.3451C111.226 41.0955 104.869 31.066 95.8175 23.8866C88.4455 18.0392 79.6393 14.3624 70.3835 13.1994C66.8765 12.7587 64 9.93462 64 6.4Z" stroke="url(#paint1_linear_2_290)" stroke-width="34" mask="url(#path-2-inside-1_2_290)"/>
<defs>
<linearGradient id="paint0_linear_2_290" x1="1.26384e-06" y1="81.2973" x2="130.58" y2="75.6944" gradientUnits="userSpaceOnUse">
<stop stop-color="#1963FF"/>
<stop offset="1" stop-color="#5B85FD"/>
</linearGradient>
<linearGradient id="paint1_linear_2_290" x1="64" y1="0" x2="64" y2="128" gradientUnits="userSpaceOnUse">
<stop stop-color="#3488FE"/>
<stop offset="0.776042" stop-color="#06E9C5"/>
</linearGradient>
</defs>
</svg>
