<svg width="24" height="24" viewBox="0 0 24 24" fill="none" xmlns="http://www.w3.org/2000/svg">
<g clip-path="url(#clip0_604_4342)">
<path d="M21.0392 11.0008L20.0605 10.9624L20.0018 11.9401L19.4582 21H15.4V18.5882C15.4 17.4834 14.5042 16.5882 13.3998 16.5882H13.394H13.3881H13.3823H13.3765H13.3707H13.3648H13.359H13.3532H13.3474H13.3416H13.3358H13.33H13.3242H13.3184H13.3126H13.3069H13.3011H13.2953H13.2896H13.2838H13.278H13.2723H13.2665H13.2608H13.2551H13.2493H13.2436H13.2379H13.2321H13.2264H13.2207H13.215H13.2093H13.2036H13.1979H13.1922H13.1865H13.1808H13.1751H13.1694H13.1637H13.158H13.1524H13.1467H13.141H13.1354H13.1297H13.1241H13.1184H13.1128H13.1071H13.1015H13.0958H13.0902H13.0846H13.079H13.0733H13.0677H13.0621H13.0565H13.0509H13.0453H13.0397H13.0341H13.0285H13.0229H13.0173H13.0117H13.0061H13.0005H12.995H12.9894H12.9838H12.9783H12.9727H12.9671H12.9616H12.956H12.9505H12.9449H12.9394H12.9338H12.9283H12.9228H12.9172H12.9117H12.9062H12.9006H12.8951H12.8896H12.8841H12.8786H12.8731H12.8676H12.8621H12.8566H12.8511H12.8456H12.8401H12.8346H12.8291H12.8236H12.8181H12.8126H12.8072H12.8017H12.7962H12.7907H12.7853H12.7798H12.7744H12.7689H12.7634H12.758H12.7525H12.7471H12.7416H12.7362H12.7307H12.7253H12.7199H12.7144H12.709H12.7036H12.6981H12.6927H12.6873H12.6819H12.6764H12.671H12.6656H12.6602H12.6548H12.6494H12.644H12.6386H12.6332H12.6278H12.6224H12.617H12.6116H12.6062H12.6008H12.5954H12.59H12.5846H12.5792H12.5739H12.5685H12.5631H12.5577H12.5524H12.547H12.5416H12.5362H12.5309H12.5255H12.5201H12.5148H12.5094H12.5041H12.4987H12.4934H12.488H12.4826H12.4773H12.4719H12.4666H12.4613H12.4559H12.4506H12.4452H12.4399H12.4345H12.4292H12.4239H12.4185H12.4132H12.4079H12.4025H12.3972H12.3919H12.3866H12.3812H12.3759H12.3706H12.3653H12.3599H12.3546H12.3493H12.344H12.3387H12.3334H12.328H12.3227H12.3174H12.3121H12.3068H12.3015H12.2962H12.2909H12.2856H12.2803H12.275H12.2697H12.2644H12.2591H12.2538H12.2485H12.2432H12.2379H12.2326H12.2273H12.222H12.2167H12.2114H12.2061H12.2008H12.1955H12.1902H12.1849H12.1796H12.1743H12.1691H12.1638H12.1585H12.1532H12.1479H12.1426H12.1373H12.132H12.1268H12.1215H12.1162H12.1109H12.1056H12.1003H12.0951H12.0898H12.0845H12.0792H12.0739H12.0686H12.0634H12.0581H12.0528H12.0475H12.0422H12.037H12.0317H12.0264H12.0211H12.0158H12.0106H12.0053H12H11.9947H11.9894H11.9842H11.9789H11.9736H11.9683H11.963H11.9578H11.9525H11.9472H11.9419H11.9366H11.9314H11.9261H11.9208H11.9155H11.9102H11.9049H11.8997H11.8944H11.8891H11.8838H11.8785H11.8732H11.868H11.8627H11.8574H11.8521H11.8468H11.8415H11.8362H11.8309H11.8257H11.8204H11.8151H11.8098H11.8045H11.7992H11.7939H11.7886H11.7833H11.778H11.7727H11.7674H11.7621H11.7568H11.7515H11.7462H11.7409H11.7356H11.7303H11.725H11.7197H11.7144H11.7091H11.7038H11.6985H11.6932H11.6879H11.6826H11.6773H11.672H11.6666H11.6613H11.656H11.6507H11.6454H11.6401H11.6347H11.6294H11.6241H11.6188H11.6134H11.6081H11.6028H11.5975H11.5921H11.5868H11.5815H11.5761H11.5708H11.5655H11.5601H11.5548H11.5494H11.5441H11.5387H11.5334H11.5281H11.5227H11.5174H11.512H11.5067H11.5013H11.4959H11.4906H11.4852H11.4799H11.4745H11.4691H11.4638H11.4584H11.453H11.4477H11.4423H11.4369H11.4315H11.4261H11.4208H11.4154H11.41H11.4046H11.3992H11.3938H11.3884H11.383H11.3776H11.3722H11.3668H11.3614H11.356H11.3506H11.3452H11.3398H11.3344H11.329H11.3236H11.3181H11.3127H11.3073H11.3019H11.2964H11.291H11.2856H11.2801H11.2747H11.2693H11.2638H11.2584H11.2529H11.2475H11.242H11.2366H11.2311H11.2257H11.2202H11.2147H11.2093H11.2038H11.1983H11.1928H11.1874H11.1819H11.1764H11.1709H11.1654H11.1599H11.1544H11.1489H11.1434H11.1379H11.1324H11.1269H11.1214H11.1159H11.1104H11.1049H11.0994H11.0938H11.0883H11.0828H11.0772H11.0717H11.0662H11.0606H11.0551H11.0495H11.044H11.0384H11.0329H11.0273H11.0217H11.0162H11.0106H11.005H10.9995H10.9939H10.9883H10.9827H10.9771H10.9715H10.9659H10.9603H10.9547H10.9491H10.9435H10.9379H10.9323H10.9267H10.921H10.9154H10.9098H10.9042H10.8985H10.8929H10.8872H10.8816H10.8759H10.8703H10.8646H10.859H10.8533H10.8476H10.842H10.8363H10.8306H10.8249H10.8192H10.8135H10.8078H10.8021H10.7964H10.7907H10.785H10.7793H10.7736H10.7679H10.7621H10.7564H10.7507H10.7449H10.7392H10.7335H10.7277H10.722H10.7162H10.7104H10.7047H10.6989H10.6931H10.6874H10.6816H10.6758H10.67H10.6642H10.6584H10.6526H10.6468H10.641H10.6352H10.6293H10.6235H10.6177H10.6119H10.606H10.6002C9.49584 16.5882 8.6 17.4834 8.6 18.5882V21L4.5418 21L3.9982 11.9401L3.93954 10.9624L2.96081 11.0008L2.66438 11.0124L12 2.36321L21.3356 11.0124L21.0392 11.0008Z" stroke="#37343A" stroke-width="2"/>
</g>
<defs>
<clipPath id="clip0_604_4342">
<rect width="24" height="24" fill="white"/>
</clipPath>
</defs>
</svg>
