<svg width="128" height="128" viewBox="0 0 128 128" fill="none" xmlns="http://www.w3.org/2000/svg">
<path d="M128 64C128 99.3462 99.3462 128 64 128C28.6538 128 0 99.3462 0 64C0 28.6538 28.6538 0 64 0C99.3462 0 128 28.6538 128 64ZM12.8 64C12.8 92.277 35.723 115.2 64 115.2C92.277 115.2 115.2 92.277 115.2 64C115.2 35.723 92.277 12.8 64 12.8C35.723 12.8 12.8 35.723 12.8 64Z" fill="url(#paint0_linear_2_292)"/>
<mask id="path-2-inside-1_2_292" fill="white">
<path d="M64 6.4C64 2.86538 66.8726 -0.0331592 70.3895 0.319713C80.5611 1.34027 90.3735 4.78671 98.9854 10.4087C109.39 17.2008 117.592 26.8745 122.591 38.2493C127.59 49.6241 129.17 62.2082 127.138 74.4659C125.107 86.7235 119.551 98.1247 111.149 107.278C102.747 116.432 91.862 122.941 79.8227 126.013C67.7835 129.085 55.1105 128.586 43.3501 124.577C31.5897 120.568 21.2505 113.223 13.5942 103.437C7.25689 95.3368 2.98459 85.8548 1.09861 75.8076C0.446505 72.3337 3.08898 69.2239 6.61067 68.9219C10.1324 68.6199 13.192 71.2445 13.9307 74.701C15.549 82.2727 18.8702 89.4077 23.6754 95.5494C29.8004 103.378 38.0717 109.254 47.48 112.462C56.8884 115.669 67.0268 116.068 76.6582 113.611C86.2896 111.153 94.9974 105.945 101.719 98.6225C108.441 91.2998 112.885 82.1788 114.511 72.3727C116.136 62.5665 114.872 52.4993 110.873 43.3994C106.873 34.2996 100.312 26.5606 91.9883 21.127C85.4584 16.8641 78.0658 14.1648 70.3835 13.1995C66.8764 12.7588 64 9.93462 64 6.4Z"/>
</mask>
<path d="M64 6.4C64 2.86538 66.8726 -0.0331592 70.3895 0.319713C80.5611 1.34027 90.3735 4.78671 98.9854 10.4087C109.39 17.2008 117.592 26.8745 122.591 38.2493C127.59 49.6241 129.17 62.2082 127.138 74.4659C125.107 86.7235 119.551 98.1247 111.149 107.278C102.747 116.432 91.862 122.941 79.8227 126.013C67.7835 129.085 55.1105 128.586 43.3501 124.577C31.5897 120.568 21.2505 113.223 13.5942 103.437C7.25689 95.3368 2.98459 85.8548 1.09861 75.8076C0.446505 72.3337 3.08898 69.2239 6.61067 68.9219C10.1324 68.6199 13.192 71.2445 13.9307 74.701C15.549 82.2727 18.8702 89.4077 23.6754 95.5494C29.8004 103.378 38.0717 109.254 47.48 112.462C56.8884 115.669 67.0268 116.068 76.6582 113.611C86.2896 111.153 94.9974 105.945 101.719 98.6225C108.441 91.2998 112.885 82.1788 114.511 72.3727C116.136 62.5665 114.872 52.4993 110.873 43.3994C106.873 34.2996 100.312 26.5606 91.9883 21.127C85.4584 16.8641 78.0658 14.1648 70.3835 13.1995C66.8764 12.7588 64 9.93462 64 6.4Z" stroke="url(#paint1_linear_2_292)" stroke-width="34" mask="url(#path-2-inside-1_2_292)"/>
<defs>
<linearGradient id="paint0_linear_2_292" x1="1.26384e-06" y1="81.2973" x2="130.58" y2="75.6944" gradientUnits="userSpaceOnUse">
<stop stop-color="#1963FF"/>
<stop offset="1" stop-color="#5B85FD"/>
</linearGradient>
<linearGradient id="paint1_linear_2_292" x1="64" y1="0" x2="64" y2="128" gradientUnits="userSpaceOnUse">
<stop stop-color="#3488FE"/>
<stop offset="0.776042" stop-color="#06E9C5"/>
</linearGradient>
</defs>
</svg>
