<svg width="21" height="20" viewBox="0 0 21 20" fill="none" xmlns="http://www.w3.org/2000/svg">
<path d="M10.5039 18.5281L2.39403 9.7737C2.39337 9.77298 2.39271 9.77226 2.39205 9.77154C1.50461 8.80087 1 7.49227 1 6.12C1 4.74711 1.50507 3.43793 2.39326 2.46714C2.82389 1.99899 3.33562 1.63024 3.89654 1.3796C4.45762 1.12889 5.05823 1.00062 5.66342 1.00062C6.26861 1.00062 6.86921 1.12889 7.43029 1.3796C7.99153 1.63038 8.50353 1.99941 8.93431 2.46795L8.93686 2.4707L9.77061 3.3707L10.5079 4.16661L11.2412 3.36699L12.0658 2.46783C12.0659 2.46765 12.0661 2.46747 12.0663 2.46729C12.4969 1.99892 13.0087 1.62999 13.5698 1.37921C14.1308 1.12844 14.7313 1.0001 15.3365 1L10.5039 18.5281ZM10.5039 18.5281L18.606 9.7737C18.6066 9.77306 18.6071 9.77242 18.6077 9.77178C19.4953 8.80109 20 7.49238 20 6.12C20 4.74712 19.4949 3.43796 18.6068 2.46717C18.1762 1.99886 17.6644 1.62996 17.1034 1.37921C16.5424 1.12844 15.9418 1.0001 15.3367 1L10.5039 18.5281Z" stroke="#ACB2C9" stroke-width="2"/>
</svg>
