<svg width="40" height="40" viewBox="0 0 40 40" fill="none" xmlns="http://www.w3.org/2000/svg">
<path d="M35 2.5C35.663 2.5 36.2989 2.76339 36.7678 3.23223C37.2366 3.70107 37.5 4.33696 37.5 5V25C37.5 25.663 37.2366 26.2989 36.7678 26.7678C36.2989 27.2366 35.663 27.5 35 27.5H11.035C9.70903 27.5003 8.43746 28.0273 7.5 28.965L2.5 33.965V5C2.5 4.33696 2.76339 3.70107 3.23223 3.23223C3.70107 2.76339 4.33696 2.5 5 2.5H35ZM5 0C3.67392 0 2.40215 0.526784 1.46447 1.46447C0.526784 2.40215 0 3.67392 0 5L0 36.9825C5.25372e-05 37.2298 0.0734815 37.4716 0.210993 37.6772C0.348505 37.8828 0.543917 38.043 0.772498 38.1374C1.00108 38.2319 1.25255 38.2565 1.49509 38.208C1.73763 38.1595 1.96033 38.0401 2.135 37.865L9.2675 30.7325C9.73623 30.2636 10.372 30.0001 11.035 30H35C36.3261 30 37.5979 29.4732 38.5355 28.5355C39.4732 27.5979 40 26.3261 40 25V5C40 3.67392 39.4732 2.40215 38.5355 1.46447C37.5979 0.526784 36.3261 0 35 0L5 0Z" fill="#DEDDD9"/>
<path d="M26.2494 8.73237C30.4094 4.45487 40.8119 11.9399 26.2494 21.5624C11.6869 11.9374 22.0894 4.45487 26.2494 8.73237Z" fill="#DEDDD9"/>
<path d="M6.89813 20.75V18.8665L11.2991 14.7915C11.6733 14.4293 11.9873 14.1033 12.2408 13.8136C12.4984 13.5238 12.6936 13.2401 12.8264 12.9624C12.9592 12.6806 13.0256 12.3768 13.0256 12.0508C13.0256 11.6886 12.9431 11.3767 12.7781 11.1151C12.6131 10.8494 12.3877 10.6462 12.102 10.5053C11.8162 10.3604 11.4922 10.288 11.13 10.288C10.7517 10.288 10.4217 10.3645 10.14 10.5174C9.85824 10.6703 9.64091 10.8897 9.48797 11.1754C9.33503 11.4612 9.25857 11.8013 9.25857 12.1957H6.77739C6.77739 11.3867 6.96051 10.6844 7.32675 10.0888C7.69299 9.49313 8.20613 9.03232 8.86617 8.70632C9.5262 8.38033 10.2869 8.21733 11.1481 8.21733C12.0335 8.21733 12.8043 8.37429 13.4603 8.68821C14.1203 8.99811 14.6334 9.42874 14.9997 9.98011C15.3659 10.5315 15.5491 11.1634 15.5491 11.8757C15.5491 12.3426 15.4565 12.8034 15.2714 13.2582C15.0902 13.7129 14.7663 14.218 14.2994 14.7734C13.8325 15.3248 13.1745 15.9869 12.3253 16.7596L10.5203 18.5284V18.6129H15.712V20.75H6.89813Z" fill="#DEDDD9"/>
</svg>
