<svg width="24" height="24" viewBox="0 0 24 24" fill="none" xmlns="http://www.w3.org/2000/svg">
<path d="M20.3973 17.933C20.2009 16.5491 19.8103 15.3996 19.2254 14.4844C18.6406 13.5692 17.817 13.0402 16.7545 12.8973C16.1562 13.558 15.4442 14.0737 14.6183 14.4442C13.7924 14.8147 12.9196 15 12 15C11.0804 15 10.2076 14.8147 9.3817 14.4442C8.5558 14.0737 7.84375 13.558 7.24554 12.8973C6.18304 13.0402 5.35938 13.5692 4.77455 14.4844C4.18973 15.3996 3.79911 16.5491 3.60268 17.933C4.54911 19.2723 5.75893 20.3326 7.23214 21.1138C8.70536 21.8951 10.2946 22.2857 12 22.2857C13.7054 22.2857 15.2946 21.8951 16.7679 21.1138C18.2411 20.3326 19.4509 19.2723 20.3973 17.933ZM17.1429 8.57143C17.1429 7.15179 16.6406 5.93973 15.6362 4.93527C14.6317 3.9308 13.4196 3.42857 12 3.42857C10.5804 3.42857 9.3683 3.9308 8.36384 4.93527C7.35938 5.93973 6.85714 7.15179 6.85714 8.57143C6.85714 9.99107 7.35938 11.2031 8.36384 12.2076C9.3683 13.2121 10.5804 13.7143 12 13.7143C13.4196 13.7143 14.6317 13.2121 15.6362 12.2076C16.6406 11.2031 17.1429 9.99107 17.1429 8.57143ZM24 12C24 13.625 23.683 15.1763 23.0491 16.654C22.4152 18.1317 21.5647 19.4085 20.4978 20.4844C19.4308 21.5603 18.1562 22.4152 16.6741 23.0491C15.192 23.683 13.6339 24 12 24C10.375 24 8.82143 23.683 7.33929 23.0491C5.85714 22.4152 4.58036 21.5625 3.50893 20.4911C2.4375 19.4196 1.58482 18.1429 0.950893 16.6607C0.316964 15.1786 0 13.625 0 12C0 10.375 0.316964 8.82143 0.950893 7.33929C1.58482 5.85714 2.4375 4.58036 3.50893 3.50893C4.58036 2.4375 5.85714 1.58482 7.33929 0.950893C8.82143 0.316964 10.375 0 12 0C13.625 0 15.1786 0.316964 16.6607 0.950893C18.1429 1.58482 19.4196 2.4375 20.4911 3.50893C21.5625 4.58036 22.4152 5.85714 23.0491 7.33929C23.683 8.82143 24 10.375 24 12Z" fill="white"/>
</svg>
