<svg width="40" height="40" viewBox="0 0 40 40" fill="none" xmlns="http://www.w3.org/2000/svg">
<path d="M35 2.5C35.663 2.5 36.2989 2.76339 36.7678 3.23223C37.2366 3.70107 37.5 4.33696 37.5 5V25C37.5 25.663 37.2366 26.2989 36.7678 26.7678C36.2989 27.2366 35.663 27.5 35 27.5H11.035C9.70903 27.5003 8.43746 28.0273 7.5 28.965L2.5 33.965V5C2.5 4.33696 2.76339 3.70107 3.23223 3.23223C3.70107 2.76339 4.33696 2.5 5 2.5H35ZM5 0C3.67392 0 2.40215 0.526784 1.46447 1.46447C0.526784 2.40215 0 3.67392 0 5L0 36.9825C5.25372e-05 37.2298 0.0734815 37.4716 0.210993 37.6772C0.348505 37.8828 0.543917 38.043 0.772498 38.1374C1.00108 38.2319 1.25255 38.2565 1.49509 38.208C1.73763 38.1595 1.96033 38.0401 2.135 37.865L9.2675 30.7325C9.73623 30.2636 10.372 30.0001 11.035 30H35C36.3261 30 37.5979 29.4732 38.5355 28.5355C39.4732 27.5979 40 26.3261 40 25V5C40 3.67392 39.4732 2.40215 38.5355 1.46447C37.5979 0.526784 36.3261 0 35 0L5 0Z" fill="#61E8AF"/>
<path d="M26.2494 8.73237C30.4094 4.45487 40.8119 11.9399 26.2494 21.5624C11.6869 11.9374 22.0894 4.45487 26.2494 8.73237V8.73237Z" fill="#61E8AF"/>
<path d="M11.2191 20.919C10.3175 20.919 9.51463 20.7641 8.81032 20.4542C8.11004 20.1403 7.55666 19.7096 7.15017 19.1623C6.74771 18.6109 6.54044 17.975 6.52836 17.2546H9.16047C9.17657 17.5565 9.27517 17.8221 9.45628 18.0515C9.64141 18.2769 9.88691 18.4519 10.1928 18.5767C10.4987 18.7015 10.8428 18.7638 11.2251 18.7638C11.6235 18.7638 11.9757 18.6934 12.2816 18.5526C12.5874 18.4117 12.8269 18.2165 13 17.967C13.173 17.7174 13.2595 17.4297 13.2595 17.1037C13.2595 16.7737 13.167 16.4819 12.9818 16.2283C12.8007 15.9708 12.5391 15.7695 12.197 15.6246C11.859 15.4798 11.4565 15.4073 10.9897 15.4073H9.8366V13.4876H10.9897C11.3841 13.4876 11.7322 13.4192 12.034 13.2823C12.3399 13.1455 12.5774 12.9563 12.7464 12.7148C12.9154 12.4693 13 12.1836 13 11.8576C13 11.5477 12.9255 11.276 12.7766 11.0426C12.6317 10.8052 12.4264 10.62 12.1608 10.4872C11.8992 10.3544 11.5934 10.288 11.2432 10.288C10.889 10.288 10.5651 10.3524 10.2713 10.4812C9.97747 10.6059 9.74202 10.785 9.56494 11.0185C9.38786 11.2519 9.29328 11.5256 9.28121 11.8395H6.77588C6.78795 11.1271 6.9912 10.4993 7.38561 9.95597C7.78002 9.41264 8.31127 8.98804 8.97936 8.68217C9.65147 8.37228 10.4101 8.21733 11.2553 8.21733C12.1085 8.21733 12.8551 8.37228 13.495 8.68217C14.1349 8.99207 14.6319 9.41063 14.9861 9.93785C15.3443 10.4611 15.5214 11.0487 15.5174 11.7006C15.5214 12.3929 15.3061 12.9704 14.8714 13.4332C14.4408 13.8961 13.8793 14.1899 13.1871 14.3146V14.4112C14.0967 14.5279 14.7889 14.8439 15.2638 15.359C15.7427 15.8701 15.9802 16.5101 15.9762 17.2788C15.9802 17.9831 15.7769 18.6089 15.3664 19.1562C14.9599 19.7036 14.3985 20.1342 13.6821 20.4482C12.9657 20.7621 12.1447 20.919 11.2191 20.919Z" fill="#61E8AF"/>
</svg>
